<svg width="256" height="54" viewBox="0 0 256 54" fill="none" xmlns="http://www.w3.org/2000/svg">
<rect width="256" height="54" fill="white"/>
<path d="M0 0H201V54H0V0Z" fill="white"/>
<path d="M11.344 14.272C11.344 12.16 12.048 10.512 13.456 9.328C14.864 8.112 16.832 7.504 19.36 7.504C21.92 7.504 24.08 7.776 25.84 8.32V11.584C24.176 10.976 22.144 10.672 19.744 10.672C16.448 10.672 14.8 11.92 14.8 14.416V16.72C14.8 17.84 15.008 18.72 15.424 19.36C15.872 20 16.608 20.608 17.632 21.184L23.2 24.304C25.792 25.712 27.088 27.84 27.088 30.688V33.28C27.088 35.488 26.336 37.2 24.832 38.416C23.328 39.632 21.152 40.24 18.304 40.24C15.488 40.24 13.248 39.92 11.584 39.28V36.016C13.472 36.72 15.616 37.072 18.016 37.072C21.792 37.072 23.68 35.744 23.68 33.088V31.072C23.68 30.016 23.488 29.184 23.104 28.576C22.72 27.968 22.032 27.392 21.04 26.848L15.52 23.824C12.736 22.32 11.344 20.08 11.344 17.104V14.272ZM43.6334 19.696C43.6334 16.72 42.1614 15.232 39.2174 15.232C36.2734 15.232 34.8014 16.72 34.8014 19.696V32.992C34.8014 36 36.2734 37.504 39.2174 37.504C42.1614 37.504 43.6334 36 43.6334 32.992V19.696ZM31.4414 19.648C31.4414 17.376 32.0814 15.568 33.3614 14.224C34.6414 12.88 36.5934 12.208 39.2174 12.208C41.8414 12.208 43.7934 12.88 45.0734 14.224C46.3534 15.568 46.9934 17.376 46.9934 19.648V33.04C46.9934 35.312 46.3534 37.12 45.0734 38.464C43.7934 39.808 41.8414 40.48 39.2174 40.48C36.5934 40.48 34.6414 39.808 33.3614 38.464C32.0814 37.12 31.4414 35.312 31.4414 33.04V19.648ZM60.2118 37.072C61.8118 37.072 63.3478 36.576 64.8198 35.584V12.688H68.2278V40H64.9638V38.704C63.1078 39.632 61.2038 40.096 59.2518 40.096C57.3318 40.096 55.7958 39.52 54.6438 38.368C53.4918 37.184 52.9158 35.488 52.9158 33.28V12.688H56.3238V32.992C56.3238 35.712 57.6198 37.072 60.2118 37.072ZM78.1229 13.936C80.2669 13.04 82.2189 12.592 83.9789 12.592C85.7709 12.592 87.2429 13.152 88.3949 14.272C89.5469 15.36 90.1229 16.912 90.1229 18.928V40H86.7149V19.264C86.7149 16.928 85.5309 15.76 83.1629 15.76C81.6589 15.76 80.0269 16.176 78.2669 17.008V40H74.8589V12.688H78.1229V13.936ZM107.939 15.808H104.003C100.963 15.808 99.4431 17.184 99.4431 19.936V33.04C99.4431 35.728 100.739 37.072 103.331 37.072C105.251 37.072 106.787 36.528 107.939 35.44V15.808ZM107.939 5.44H111.347V40H108.035V38.416C106.595 39.568 104.803 40.144 102.659 40.144C100.515 40.144 98.8671 39.552 97.7151 38.368C96.5951 37.184 96.0351 35.488 96.0351 33.28V19.888C96.0351 17.616 96.7071 15.856 98.0511 14.608C99.3951 13.328 101.187 12.688 103.427 12.688H107.939V5.44ZM117.984 5.44H121.344V40H117.984V5.44ZM129.12 12.688H132.72L126.72 25.84L133.2 40H129.408L123.072 25.84L129.12 12.688ZM136.816 33.04V19.696C136.816 17.424 137.456 15.616 138.736 14.272C140.048 12.896 142.016 12.208 144.64 12.208C147.264 12.208 149.2 12.896 150.448 14.272C151.728 15.616 152.368 17.424 152.368 19.696V28.048H140.176V32.896C140.176 34.336 140.624 35.408 141.52 36.112C142.416 36.816 143.808 37.168 145.696 37.168C147.584 37.168 149.536 36.88 151.552 36.304V39.472C149.952 39.984 148.048 40.24 145.84 40.24C139.824 40.24 136.816 37.84 136.816 33.04ZM140.176 25.216H149.104V19.696C149.104 16.688 147.616 15.184 144.64 15.184C141.664 15.184 140.176 16.688 140.176 19.696V25.216ZM169.243 12.688H172.651L165.163 47.152H161.899L163.387 40H161.707L155.755 12.688H159.211L162.091 26.272L164.203 37.6C164.843 33.824 165.547 30.048 166.315 26.272L169.243 12.688ZM174.844 19.12C174.844 16.88 175.484 15.216 176.764 14.128C178.044 13.008 180.14 12.448 183.052 12.448C184.844 12.448 186.62 12.72 188.38 13.264V16.432C186.78 15.856 185.02 15.568 183.1 15.568C181.18 15.568 179.884 15.856 179.212 16.432C178.54 16.976 178.204 17.904 178.204 19.216V20.464C178.204 21.488 178.396 22.272 178.78 22.816C179.196 23.36 179.948 23.872 181.036 24.352L185.164 26.368C188.044 27.776 189.484 29.728 189.484 32.224V33.52C189.484 38 186.588 40.24 180.796 40.24C178.62 40.24 176.7 39.984 175.036 39.472V36.304C176.7 36.88 178.54 37.168 180.556 37.168C182.604 37.168 184.028 36.864 184.828 36.256C185.66 35.616 186.076 34.688 186.076 33.472V32.512C186.076 31.616 185.868 30.928 185.452 30.448C185.036 29.936 184.22 29.392 183.004 28.816L178.876 26.848C176.188 25.568 174.844 23.536 174.844 20.752V19.12Z" fill="black"/>
<mask id="path-4-inside-1_1_4" fill="white">
<path d="M201 0H256V54H201V0Z"/>
</mask>
<path d="M201 0H256V54H201V0Z" fill="black"/>
<path d="M201 0V-3H198V0H201ZM256 0H259V-3H256V0ZM256 54V57H259V54H256ZM201 54H198V57H201V54ZM201 0V3H256V0V-3H201V0ZM256 0H253V54H256H259V0H256ZM256 54V51H201V54V57H256V54ZM201 54H204V0H201H198V54H201Z" fill="white" mask="url(#path-4-inside-1_1_4)"/>
<path d="M221.92 36.373C221.92 37.465 221.582 38.349 220.906 39.025C220.23 39.675 219.346 40 218.254 40H211.78V16.327H211.195L211.585 12.7H218.254C219.346 12.7 220.23 13.038 220.906 13.714C221.582 14.364 221.92 15.235 221.92 16.327V36.373ZM218.02 16.327H215.485V36.373H218.02C218.15 36.373 218.215 36.308 218.215 36.178V16.522C218.215 16.392 218.15 16.327 218.02 16.327ZM227.177 32.2V36.334C227.177 36.464 227.242 36.529 227.372 36.529H228.932C229.062 36.529 229.127 36.464 229.127 36.334V29.314L226.046 27.949C225.812 27.871 225.487 27.741 225.071 27.559C224.655 27.351 224.278 27.052 223.94 26.662C223.628 26.272 223.472 25.739 223.472 25.063V16.171C223.472 15.079 223.81 14.208 224.486 13.558C225.162 12.882 226.046 12.544 227.138 12.544H229.166C230.258 12.544 231.142 12.882 231.818 13.558C232.494 14.208 232.832 15.079 232.832 16.171V21.943L229.127 21.631V16.366C229.127 16.236 229.062 16.171 228.932 16.171H227.372C227.242 16.171 227.177 16.236 227.177 16.366V24.517L230.258 25.882C230.492 25.986 230.817 26.129 231.233 26.311C231.649 26.493 232.013 26.779 232.325 27.169C232.663 27.559 232.832 28.092 232.832 28.768V36.529C232.832 37.621 232.494 38.505 231.818 39.181C231.142 39.831 230.258 40.156 229.166 40.156H227.138C226.046 40.156 225.162 39.831 224.486 39.181C223.81 38.505 223.472 37.621 223.472 36.529V32.2H227.177ZM234.013 16.327L234.403 12.7H240.565C241.657 12.7 242.541 13.038 243.217 13.714C243.893 14.364 244.231 15.235 244.231 16.327V28.534C244.231 29.626 243.815 30.51 242.983 31.186C242.177 31.836 241.228 32.161 240.136 32.161H238.303V40H234.598V16.327H234.013ZM240.331 16.327H238.303V28.534H240.331C240.461 28.534 240.526 28.469 240.526 28.339V16.522C240.526 16.392 240.461 16.327 240.331 16.327Z" fill="white"/>
</svg>
